<svg id="Capa_1" fill="#EA8F7C" enable-background="new 0 0 284.539 284.539" height="512" viewBox="0 0 284.539 284.539" width="512" xmlns="http://www.w3.org/2000/svg"><path d="m279.796 184.95h-275.054c-2.618 0-4.742-2.125-4.742-4.742v-156.492c0-10.461 8.512-18.974 18.974-18.974h246.591c10.462 0 18.974 8.512 18.974 18.974v156.492c0 2.618-2.125 4.742-4.743 4.742zm-270.311-9.484h265.57v-151.75c0-5.236-4.259-9.489-9.489-9.489h-246.592c-5.231 0-9.489 4.254-9.489 9.489z"/><path d="m265.565 222.889h-246.591c-10.462 0-18.974-8.513-18.974-18.974v-23.707c0-2.618 2.125-4.742 4.742-4.742h275.054c2.618 0 4.742 2.125 4.742 4.742v23.707c.001 10.461-8.512 18.974-18.973 18.974zm-256.08-37.939v18.965c0 5.236 4.259 9.489 9.489 9.489h246.591c5.231 0 9.489-4.254 9.489-9.489v-18.965z"/><path d="m156.496 203.919h-28.454c-2.618 0-4.742-2.125-4.742-4.742s2.125-4.742 4.742-4.742h28.454c2.618 0 4.742 2.125 4.742 4.742s-2.124 4.742-4.742 4.742z"/><path d="m260.827 184.95h-237.115c-2.618 0-4.742-2.125-4.742-4.742v-151.754c0-2.618 2.125-4.742 4.742-4.742h237.116c2.618 0 4.742 2.125 4.742 4.742v151.754c0 2.618-2.125 4.742-4.743 4.742zm-232.373-9.484h227.631v-142.27h-227.631z"/><path d="m203.919 279.796h-123.3c-7.844 0-14.227-6.383-14.227-14.227s6.383-14.227 14.227-14.227h123.3c7.844 0 14.227 6.383 14.227 14.227s-6.383 14.227-14.227 14.227zm-123.3-18.969c-2.618 0-4.742 2.129-4.742 4.742s2.125 4.742 4.742 4.742h123.3c2.618 0 4.742-2.129 4.742-4.742s-2.125-4.742-4.742-4.742z"/><path d="m194.435 260.827h-104.331c-2.618 0-4.742-2.125-4.742-4.742 0-2.618 2.125-4.742 4.742-4.742 15.735 0 23.712-11.168 23.712-33.196 0-2.618 2.125-4.742 4.742-4.742h47.423c2.618 0 4.742 2.125 4.742 4.742 0 22.028 7.977 33.196 23.712 33.196 2.618 0 4.742 2.125 4.742 4.742 0 2.618-2.124 4.742-4.742 4.742zm-81.231-9.484h58.136c-5.843-6.469-9.281-16.1-9.968-28.454h-38.199c-.693 12.353-4.131 21.985-9.969 28.454z"/><path d="m165.568 156.496c-.541 0-1.086-.066-1.627-.199-2.352-.588-4.221-2.39-4.88-4.714-4.671-16.503-12.045-29.431-16.793-29.431-4.747 0-12.121 12.928-16.793 29.431-.659 2.324-2.528 4.126-4.88 4.714-2.352.569-4.837-.142-6.497-1.878-8.47-8.859-7.991-25.533-7.905-27.401-.005-4.567.991-10.471 2.964-17.324.74-2.58.247-5.354-1.361-7.611-.351-.493-.688-.986-1.01-1.48-4.709-7.189-7.199-15.773-7.199-24.826v-4.154c0-15.394 16.048-19.458 24.537-19.458 8.328 0 14.483 3.988 18.144 7.275 3.661-3.286 9.817-7.275 18.144-7.275 8.489 0 24.537 4.064 24.537 19.462v4.154c0 9.053-2.49 17.637-7.199 24.826-.318.488-.654.982-1.005 1.475-1.608 2.262-2.101 5.036-1.361 7.611 1.968 6.853 2.964 12.752 2.964 17.532.076 1.665.56 18.334-7.91 27.192-1.28 1.344-3.053 2.079-4.87 2.079zm-41.443-94.846c-.602.005-15.052.199-15.052 9.978v4.154c0 7.204 1.954 13.99 5.648 19.628.261.398.526.792.806 1.186 3.282 4.619 4.282 10.352 2.741 15.716-1.698 5.923-2.599 11.078-2.599 14.915-.128 3.158.199 10.452 2.452 16.005 4.059-12.216 12.15-30.559 24.148-30.559 11.989 0 20.079 18.329 24.138 30.54 2.262-5.61 2.585-12.984 2.461-15.782-.005-4.045-.901-9.2-2.604-15.123-1.541-5.368-.541-11.097 2.746-15.721.275-.389.541-.778.797-1.171 3.704-5.648 5.658-12.434 5.658-19.638v-4.154c0-9.736-14.336-9.973-15.057-9.978-8.816.005-14.194 7.374-14.246 7.45-1.774 2.547-6.013 2.547-7.787 0-.198-.276-5.424-7.446-14.25-7.446z"/><path d="m128.042 80.619c-2.618 0-4.742-2.125-4.742-4.742 0-2.618 2.125-4.742 4.742-4.742 2.826 0 7.934-4.477 10.528-7.711 1.641-2.039 4.624-2.366 6.668-.726 2.039 1.641 2.366 4.624.726 6.668-1.508 1.878-9.471 11.253-17.922 11.253z"/><path d="m42.681 71.135c-2.618 0-4.742-2.125-4.742-4.742v-18.97c0-2.618 2.125-4.742 4.742-4.742h18.969c2.618 0 4.742 2.125 4.742 4.742 0 2.618-2.125 4.742-4.742 4.742h-14.227v14.227c0 2.618-2.124 4.743-4.742 4.743z"/><path d="m241.858 165.981h-18.969c-2.618 0-4.742-2.125-4.742-4.742 0-2.618 2.125-4.742 4.742-4.742h14.227v-14.227c0-2.618 2.125-4.742 4.742-4.742s4.742 2.125 4.742 4.742v18.969c0 2.617-2.124 4.742-4.742 4.742z"/></svg>