<?xml version="1.0" encoding="iso-8859-1"?>
<!-- Generator: Adobe Illustrator 19.0.0, SVG Export Plug-In . SVG Version: 6.00 Build 0)  -->
<svg version="1.1" id="Capa_1" fill="#EA8F7C" xmlns="http://www.w3.org/2000/svg" xmlns:xlink="http://www.w3.org/1999/xlink" x="0px" y="0px"
	 viewBox="0 0 480.597 480.597" style="enable-background:new 0 0 480.597 480.597;" xml:space="preserve">
<g>
	<g>
		<path d="M96.249,33.744c0.59-3.851-1.68-7.567-5.376-8.8l-72-24c-3.775-1.262-7.903,0.442-9.688,4l-8,16
			c-1.997,3.941-0.421,8.755,3.52,10.752c0.021,0.011,0.042,0.021,0.064,0.032L47.401,53l-14.92,82.096
			c-0.065,0.333-0.11,0.67-0.136,1.008l-16,304c-0.119,2.266,0.73,4.476,2.336,6.08l32,32c3.124,3.123,8.188,3.123,11.312,0l32-32
			c1.606-1.604,2.455-3.814,2.336-6.08l-16-303.2L96.249,33.744z M48.345,137.456L64.209,49.96c0.64-3.499-1.108-7-4.288-8.592
			l-40.8-20.416l1.32-2.64l59.016,19.672l-15.016,97.328c-0.086,0.542-0.115,1.092-0.088,1.64l2.08,39.576H46.249L48.345,137.456z
			 M45.409,192.528h21.872l0.84,16H44.569L45.409,192.528z M43.681,224.528h25.28l0.84,16h-26.92L43.681,224.528z M42.001,256.528
			h28.648l0.84,16H41.201L42.001,256.528z M40.345,288.528h32l0.84,16h-33.64L40.345,288.528z M38.673,320.528h35.36l0.84,16h-37.04
			L38.673,320.528z M56.345,461.216l-23.824-23.832l4.472-84.856h38.704l4.472,84.856L56.345,461.216z"/>
	</g>
</g>
<g>
	<g>
		<path d="M190.001,38.184c3.124-3.124,3.124-8.19,0-11.314c-0.267-0.267-0.553-0.515-0.856-0.742l-32-24l-9.6,12.8l24.624,18.464
			l-17.48,17.48c-1.5,1.5-2.344,3.534-2.344,5.656v40h-8c-4.418,0-8,3.582-8,8v272c0,4.418,3.582,8,8,8h8v26.584l-20,8
			c-16.326,6.558-24.244,25.109-17.685,41.435c4.846,12.062,16.534,19.97,29.533,19.981h24.152v-16h-24.152
			c-8.753,0.009-15.855-7.079-15.864-15.832c-0.007-6.492,3.946-12.331,9.976-14.736l25.008-10c3.04-1.214,5.033-4.159,5.032-7.432
			v-32h8c4.418,0,8-3.582,8-8v-272c0-4.418-3.582-8-8-8h-8V59.84L190.001,38.184z M168.345,368.528h-16v-16h16V368.528z
			 M168.345,336.528h-16v-192h16V336.528z M168.345,128.528h-16v-16h16V128.528z"/>
	</g>
</g>
<g>
	<g>
		<path d="M464.345,192.528h-8v-71.36c23.848-15.368,31.2-51.304,16-82.2c-7.779-16.82-22.026-29.783-39.504-35.944
			c-12.395-4.189-25.966-3.101-37.536,3.008c-26.216,14.176-34.76,51.888-18.96,84.096c7.779,16.82,22.026,29.783,39.504,35.944
			c5.037,1.63,10.297,2.467,15.592,2.48c2.992-0.041,5.974-0.367,8.904-0.976v64.952h-8c-4.418,0-8,3.582-8,8v272
			c0,4.418,3.582,8,8,8h32c4.418,0,8-3.582,8-8v-272C472.345,196.11,468.763,192.528,464.345,192.528z M420.697,110.784
			c-13.332-4.823-24.152-14.824-30.008-27.736c-12.04-24.552-6.536-52.8,12.256-62.944c4.385-2.371,9.295-3.601,14.28-3.576
			c3.659,0.018,7.292,0.609,10.768,1.752c13.329,4.823,24.149,14.82,30.008,27.728c12.04,24.552,6.536,52.8-12.256,62.944
			C438.017,113.03,428.936,113.694,420.697,110.784z M456.345,464.528h-16v-224h16V464.528z M456.345,224.528h-16v-16h16V224.528z"
			/>
	</g>
</g>
<g>
	<g>
		<path d="M399.743,424.651c-3.454-20.594-19.826-36.593-40.494-39.571l-39.008-241.824c-0.324-2.048-1.435-3.888-3.096-5.128
			l-7.472-5.6l7.472-5.6c2.17-1.619,3.375-4.226,3.2-6.928l-8-120l-16,1.056l7.712,115.672l-7.712,5.8l-7.728-5.8l7.728-115.672
			l-16-1.056l-8,120c-0.174,2.702,1.03,5.309,3.2,6.928l7.472,5.6l-7.472,5.6c-1.661,1.24-2.772,3.081-3.096,5.128L233.441,385.08
			c-26.239,3.78-44.445,28.116-40.664,54.354s28.116,44.445,54.354,40.664c20.668-2.978,37.04-18.977,40.494-39.571h17.44
			c4.384,26.145,29.133,43.785,55.278,39.4S404.127,450.795,399.743,424.651z M240.345,464.528c-17.673,0-32-14.327-32-32
			c0-17.673,14.327-32,32-32c17.673,0,32,14.327,32,32C272.345,450.201,258.018,464.528,240.345,464.528z M305.065,424.528h-17.44
			c-3.349-19.653-18.478-35.202-38.032-39.088l38.136-236.448l8.616-6.464l8.616,6.464l38.136,236.448
			C323.543,389.326,308.414,404.875,305.065,424.528z M352.345,464.528c-17.673,0-32-14.327-32-32c0-17.673,14.327-32,32-32
			c17.673,0,32,14.327,32,32C384.345,450.201,370.018,464.528,352.345,464.528z"/>
	</g>
</g>
<g>
</g>
<g>
</g>
<g>
</g>
<g>
</g>
<g>
</g>
<g>
</g>
<g>
</g>
<g>
</g>
<g>
</g>
<g>
</g>
<g>
</g>
<g>
</g>
<g>
</g>
<g>
</g>
<g>
</g>
</svg>
