<?xml version="1.0" encoding="iso-8859-1"?>
<!-- Generator: Adobe Illustrator 19.0.0, SVG Export Plug-In . SVG Version: 6.00 Build 0)  -->
<svg version="1.1" id="Capa_1" fill="#EA8F7C" xmlns="http://www.w3.org/2000/svg" xmlns:xlink="http://www.w3.org/1999/xlink" x="0px" y="0px"
	 viewBox="0 0 479.427 479.427" style="enable-background:new 0 0 479.427 479.427;" xml:space="preserve">
<g>
	<g>
		<path d="M423.713,208h-1.6c-8.425-66.414-52.509-122.896-114.888-147.2c-16.911-13.469-37.892-20.803-59.512-20.8h-21.648
			c-10.162,0.008-18.406-8.224-18.414-18.386c-0.003-3.345,0.907-6.627,2.63-9.494c2.275-3.787,1.05-8.702-2.737-10.978
			c-1.246-0.749-2.673-1.144-4.127-1.142h-3.704c-2.062,0.004-4.121,0.13-6.168,0.376c-39.433,3.289-68.734,37.922-65.445,77.355
			c0.204,2.449,0.534,4.886,0.989,7.301C89.724,114.804,63.895,159.079,57.353,208h-1.64c-26.51,0-48,21.49-48,48
			c0,26.51,21.49,48,48,48h0.2C60.65,405.51,146.78,483.96,248.29,479.223c94.879-4.427,170.796-80.344,175.223-175.223h0.2
			c26.51,0,48-21.49,48-48C471.713,229.49,450.223,208,423.713,208z M55.713,232v56c-17.673,0-32-14.327-32-32s14.327-32,32-32h0.24
			C55.833,226.664,55.713,229.32,55.713,232z M407.713,296c0,92.784-75.216,168-168,168s-168-75.216-168-168v-64
			c0.124-50.751,23.085-98.75,62.52-130.696c11.58,25.854,37.207,42.55,65.536,42.696h23.944v-16h-23.944
			c-23.32-0.072-44.177-14.526-52.432-36.336c-5.347-14.028-4.738-29.632,1.688-43.2c-0.245,5.278,0.329,10.562,1.704,15.664
			c6.451,23.513,27.803,39.827,52.184,39.872h28.8c22.08,0.026,39.974,17.92,40,40h16c-0.035-30.913-25.087-55.965-56-56h-28.8
			c-17.19-0.008-32.254-11.502-36.8-28.08c-5.054-18.52,5.863-37.631,24.384-42.684c0.483-0.132,0.968-0.253,1.456-0.364
			c-1.046,7.486,0.42,15.108,4.168,21.672c6.046,10.849,17.524,17.54,29.944,17.456h21.648c44.163,0.049,79.952,35.837,80,80v8h16
			v-8c-0.002-15.226-3.656-30.23-10.656-43.752c46.831,31.04,74.892,83.569,74.656,139.752V296z M423.713,288v-56
			c0-2.688-0.184-5.336-0.304-8h0.304c17.673,0,32,14.327,32,32S441.387,288,423.713,288z"/>
	</g>
</g>
<g>
	<g>
		<path d="M135.713,200c-17.673,0-32,14.327-32,32s14.327,32,32,32s32-14.327,32-32S153.387,200,135.713,200z M135.713,248
			c-8.837,0-16-7.163-16-16s7.163-16,16-16s16,7.163,16,16S144.55,248,135.713,248z"/>
	</g>
</g>
<g>
	<g>
		<path d="M343.713,200c-17.673,0-32,14.327-32,32s14.327,32,32,32c17.673,0,32-14.327,32-32S361.387,200,343.713,200z M343.713,248
			c-8.837,0-16-7.163-16-16s7.163-16,16-16s16,7.163,16,16S352.55,248,343.713,248z"/>
	</g>
</g>
<g>
	<g>
		<path d="M319.713,288h-160c-4.418,0-8,3.582-8,8c0,48.601,39.399,88,88,88s88-39.399,88-88
			C327.713,291.582,324.132,288,319.713,288z M247.713,304h16v16h-16V304z M215.713,304h16v16h-16V304z M231.766,367.612
			c-33.472-3.718-59.895-30.141-63.612-63.612h31.56v24c0,4.418,3.582,8,8,8h64c4.418,0,8-3.582,8-8v-24h31.56
			C306.884,343.521,271.287,372.002,231.766,367.612z"/>
	</g>
</g>
<g>
</g>
<g>
</g>
<g>
</g>
<g>
</g>
<g>
</g>
<g>
</g>
<g>
</g>
<g>
</g>
<g>
</g>
<g>
</g>
<g>
</g>
<g>
</g>
<g>
</g>
<g>
</g>
<g>
</g>
</svg>
