<?xml version="1.0" encoding="iso-8859-1"?>
<!-- Generator: Adobe Illustrator 19.0.0, SVG Export Plug-In . SVG Version: 6.00 Build 0)  -->
<svg version="1.1" id="Capa_1" fill="#EA8F7C" xmlns="http://www.w3.org/2000/svg" xmlns:xlink="http://www.w3.org/1999/xlink" x="0px" y="0px"
	 viewBox="0 0 480 480" style="enable-background:new 0 0 480 480;" xml:space="preserve">
<g>
	<g>
		<path d="M181.024,220.797l-24.936,9.984c-8.521,3.384-18.171-0.781-21.555-9.301c-1.735-4.369-1.536-9.269,0.547-13.483
			l5.496-10.992c3.081-6.161,1.872-13.602-3-18.472l-38.264-38.264l10.344-10.344c3.123-3.124,3.123-8.188,0-11.312L83.312,92.27
			l2.344-2.344c3.063-3.061,3.134-8.004,0.16-11.152l-72-76.264C10.782-0.703,5.719-0.847,2.507,2.187
			C0.908,3.697,0.001,5.798,0,7.997v104c0,2.356,1.039,4.592,2.84,6.112l24,20.288c3.176,2.681,7.877,2.483,10.816-0.456L40,135.573
			l26.344,26.344c3.124,3.123,8.188,3.123,11.312,0L88,151.573l38.264,38.264l-5.464,10.96c-8.042,16.094-1.514,35.66,14.58,43.701
			c8.327,4.161,18.035,4.56,26.676,1.099l24.952-9.976L181.024,220.797z M34.344,118.629l-2.8,2.8L16,108.285v-80.16l52.848,56
			l-2.504,2.504L34.344,118.629z M72,144.949l-20.688-20.688L72,103.573l20.688,20.712L72,144.949z"/>
	</g>
</g>
<g>
	<g>
		<path d="M475.064,232.605c-2.99-1.239-6.432-0.553-8.72,1.736l-112,112c-3.123,3.124-3.123,8.188,0,11.312l6.344,6.344
			l-31.392,31.392c-12.417-7.613-26.732-11.562-41.296-11.392c-35.288,0-64,21.528-64,48s28.712,48,64,48c35.288,0,64-21.528,64-48
			c-0.159-9.728-3.882-19.059-10.464-26.224L372,375.309l6.344,6.344c3.124,3.123,8.188,3.123,11.312,0l88-88
			c1.5-1.5,2.344-3.534,2.344-5.656v-48C480.001,236.762,478.053,233.845,475.064,232.605z M288,463.997c-26.016,0-48-14.656-48-32
			s21.984-32,48-32s48,14.656,48,32S314.016,463.997,288,463.997z M464,284.685l-80,80l-12.688-12.688L464,259.309V284.685z"/>
	</g>
</g>
<g>
	<g>
		<path d="M275.832,270.349c-3.304-19.789-22.025-33.154-41.815-29.849c-15.303,2.555-27.294,14.546-29.849,29.849L180,415.357
			c-1.811,10.847-12.072,18.172-22.919,16.362c-8.6-1.436-15.266-8.299-16.449-16.938l-20.704-151.864
			c-0.148-1.136-0.538-2.228-1.144-3.2l-4.448-7.12c-13.548-21.66-23.314-45.466-28.88-70.4l-15.624,3.488
			c5.97,26.718,16.443,52.226,30.968,75.432l3.536,5.664l20.48,150.16c2.675,19.648,20.771,33.408,40.419,30.733
			c15.594-2.123,27.988-14.153,30.573-29.677l24.168-145.008c1.605-9.808,10.086-17.005,20.024-16.992
			c9.951-0.028,18.449,7.172,20.056,16.992l16.056,96.328l15.776-2.64L275.832,270.349z"/>
	</g>
</g>
<g>
	<g>
		<path d="M315.07,31.999c-13.666,0-27.189,2.776-39.75,8.158c-22.565,9.616-48.075,9.616-70.64,0
			c-39.638-16.988-85.691-6.914-114.616,25.072l11.872,10.768c16.107-17.802,38.985-27.971,62.992-28
			c11.5-0.013,22.882,2.323,33.448,6.864c26.59,11.344,56.658,11.344,83.248,0c43.114-18.473,93.039,1.502,111.512,44.616
			c4.529,10.57,6.864,21.949,6.864,33.448c0.014,42.335-11.885,83.82-34.336,119.712l-4.448,7.12
			c-0.606,0.972-0.996,2.064-1.144,3.2l-6.544,48l15.848,2.16l6.32-46.296l3.536-5.664c24.048-38.446,36.789-82.884,36.768-128.232
			C415.999,77.184,370.811,31.998,315.07,31.999z"/>
	</g>
</g>
<g>
</g>
<g>
</g>
<g>
</g>
<g>
</g>
<g>
</g>
<g>
</g>
<g>
</g>
<g>
</g>
<g>
</g>
<g>
</g>
<g>
</g>
<g>
</g>
<g>
</g>
<g>
</g>
<g>
</g>
</svg>
