<svg id="Capa_1" fill="#EA8F7C" enable-background="new 0 0 512 512" height="512" viewBox="0 0 512 512" width="512" xmlns="http://www.w3.org/2000/svg"><g><g><path d="m389.483 347.4c-3.679 0-6.884-2.719-7.393-6.467l-.19-1.377c-2.197-15.785-3.525-31.93-4.809-47.543-.358-4.351-.716-8.702-1.091-13.048-.622-7.167 1.48-14.195 5.916-19.789.011-.013.034-.043.058-.074 38.665-48.703 51.938-91.919 41.771-136.004-1.963-8.515-4.502-16.685-7.546-24.281-14.427-36.015-43.535-57.515-77.863-57.515-17.111 0-33.437 5.31-47.214 15.357-20.942 15.274-49.086 15.274-70.028 0-13.776-10.047-30.103-15.357-47.214-15.357-34.329 0-63.437 21.501-77.863 57.515-3.044 7.597-5.583 15.766-7.546 24.281-5.534 23.994-4.151 47.391 4.229 71.529 1.353 3.898-.709 8.154-4.607 9.507-3.902 1.353-8.156-.71-9.508-4.608-9.33-26.873-10.858-52.972-4.674-79.787 2.136-9.262 4.908-18.171 8.236-26.48 7.81-19.499 19.983-35.985 35.2-47.674 16.373-12.578 35.922-19.225 56.533-19.225 20.296 0 39.667 6.303 56.017 18.227 15.677 11.432 36.744 11.432 52.421 0 16.35-11.924 35.72-18.227 56.017-18.227 20.611 0 40.159 6.648 56.533 19.225 15.216 11.689 27.389 28.175 35.2 47.675 3.329 8.308 6.1 17.218 8.237 26.48 11.27 48.869-2.912 96.105-44.629 148.652-.012.015-.023.029-.034.043-2.087 2.656-3.046 5.91-2.758 9.24.378 4.368.738 8.739 1.097 13.113 1.268 15.407 2.578 31.339 4.719 46.715l.195 1.419c.555 4.089-2.308 7.853-6.397 8.409-.341.047-.679.069-1.015.069z"/></g><g><path d="m118.488 268.326c.017.021.089.114.107.136 2.055 2.591 3.027 5.864 2.737 9.215-.379 4.38-.74 8.767-1.101 13.153-1.267 15.394-2.576 31.311-4.715 46.674-2.87 20.613-5.029 47.425 3.821 72 3.181 8.832 8.9 18.698 15.69 27.067 5.851 7.211 15.286 16.686 27.006 20.872 10.022 3.581 20.05 2.644 29.001-2.708 21.105-12.622 19.705-41.418 18.681-62.445-.189-3.896-.368-7.576-.385-10.762-.067-12.417 1.585-23.755 4.907-33.7 7.486-22.404 26.537-30.388 41.87-30.388 15.332 0 34.382 7.98 41.869 30.382 3.324 9.947 4.977 21.287 4.91 33.706-.017 3.187-.197 6.866-.385 10.762-1.023 21.027-2.424 49.823 18.681 62.445 5.387 3.221 11.165 4.843 17.097 4.843 3.923 0 7.915-.71 11.905-2.135 21.263-7.595 37.473-33.436 42.696-47.939 3.73-10.356 5.767-21.621 6.228-34.441.149-4.123-3.074-7.586-7.198-7.735-4.096-.158-7.586 3.073-7.735 7.198-.405 11.251-2.157 21.036-5.354 29.916-4.484 12.453-18.284 33.437-33.664 38.931-5.841 2.086-11.174 1.608-16.306-1.462-13.415-8.022-12.312-30.685-11.427-48.895.198-4.062.384-7.898.404-11.408.075-14.06-1.836-27.02-5.68-38.523-8.241-24.657-30.239-40.588-56.042-40.587-25.804.001-47.801 15.936-56.041 40.595-3.842 11.501-5.752 24.459-5.677 38.516.019 3.51.205 7.346.404 11.408.885 18.21 1.987 40.872-11.427 48.895-5.131 3.069-10.465 3.546-16.306 1.462-15.38-5.494-29.18-26.478-33.664-38.931-7.743-21.499-5.713-45.965-3.08-64.877 2.197-15.779 3.523-31.91 4.806-47.509.359-4.365.718-8.73 1.095-13.089.622-7.167-1.48-14.196-5.866-19.725-.018-.022-.091-.116-.109-.139-9.451-11.905-17.13-23.056-23.474-34.089-2.057-3.576-6.624-4.809-10.201-2.752s-4.809 6.624-2.753 10.201c6.722 11.682 14.809 23.435 24.675 35.862z"/><path d="m449.026 297.797c-13.849-4.562-33.096-9.87-33.227-9.903-2.372-.593-4.877.011-6.719 1.614-1.841 1.604-2.783 4.006-2.521 6.433.777 7.218 1.538 14.437 2.286 21.659 3.239 31.243 5.324 57.224.371 83.42-4.563 24.126-16.265 55.188-46.094 66.157-19.008 6.989-48.003 4.937-61.7-10.564-15.202-17.202-14.63-39.202-14.025-62.494.163-6.274.332-12.761.175-19.149-.186-7.53-1.087-18.645-6.743-28.181-7.11-11.985-21.511-17.478-34.241-13.063-9.729 3.375-21.47 13.27-22.159 41.248-.157 6.385.012 12.871.175 19.143.605 23.293 1.177 45.293-14.025 62.496-13.698 15.502-42.692 17.553-61.699 10.564-29.83-10.97-41.532-42.031-46.095-66.157-4.953-26.197-2.869-52.178.371-83.421.748-7.221 1.509-14.441 2.286-21.659.262-2.428-.68-4.83-2.521-6.433-1.841-1.604-4.351-2.206-6.719-1.614-.131.033-19.378 5.341-33.226 9.903-9.215 3.035-15.406 11.59-15.406 21.29v170.501c0 12.359 10.055 22.413 22.413 22.413h372.036c12.358 0 22.413-10.054 22.413-22.413v-170.501c-.001-9.699-6.192-18.255-15.406-21.289zm.463 191.79c0 4.119-3.351 7.471-7.471 7.471h-372.036c-4.12 0-7.471-3.352-7.471-7.471v-170.501c0-3.233 2.064-6.086 5.138-7.098 6.879-2.266 15.258-4.758 21.764-6.64-.376 3.57-.75 7.14-1.12 10.711-2.648 25.534-5.944 57.313-.19 87.739 7.573 40.042 26.806 66.808 55.619 77.403 24.139 8.878 59.937 5.807 78.053-14.694 19.095-21.608 18.419-47.622 17.765-72.778-.159-6.087-.322-12.381-.174-18.387.264-10.719 2.58-24.19 12.117-27.498 6.058-2.1 12.99.665 16.493 6.57 3.873 6.529 4.513 15.07 4.657 20.926.148 6.008-.016 12.304-.173 18.392-.655 25.156-1.331 51.169 17.764 72.776 18.115 20.501 53.91 23.571 78.054 14.694 28.813-10.595 48.045-37.361 55.618-77.404 5.754-30.425 2.458-62.204-.19-87.738-.37-3.571-.743-7.142-1.12-10.712 6.506 1.882 14.885 4.374 21.765 6.64 3.073 1.012 5.137 3.864 5.137 7.098v170.501z"/><path d="m57.935 83.476c.574 3.688 3.754 6.324 7.374 6.324.381 0 .768-.029 1.157-.09 4.078-.634 6.869-4.453 6.235-8.53l-6.276-40.347c-.38-2.446-1.948-4.544-4.184-5.603-2.236-1.061-4.854-.944-6.986.312l-12.076 7.104-2.69-35.736c-.308-4.114-3.898-7.193-8.01-6.89-4.115.309-7.199 3.896-6.889 8.01l3.587 47.695c.194 2.573 1.7 4.863 3.986 6.059 2.286 1.195 5.025 1.128 7.251-.18l12.935-7.609z"/><path d="m483.236 176.945c-3.383-2.362-8.041-1.532-10.402 1.85l-27.378 39.219c-1.478 2.115-1.758 4.843-.743 7.215s3.182 4.053 5.732 4.445l14.833 2.284-15.086 25.739c-2.087 3.56-.892 8.137 2.668 10.223 1.187.696 2.487 1.026 3.77 1.026 2.564 0 5.061-1.322 6.452-3.694l20.647-35.227c1.251-2.135 1.364-4.752.302-6.986-1.063-2.235-3.164-3.799-5.61-4.175l-13.848-2.132 20.512-29.384c2.363-3.384 1.535-8.041-1.849-10.403z"/><path d="m432.657 20.015c14.832 3.799 32.752 19.751 37.048 45.796.604 3.66 3.771 6.256 7.363 6.256.404 0 .813-.033 1.225-.101 4.071-.671 6.827-4.516 6.156-8.587-2.11-12.791-7.632-25.435-15.549-35.603-8.844-11.361-20.095-19.049-32.535-22.236-3.999-1.022-8.067 1.387-9.092 5.383-1.023 3.997 1.387 8.068 5.384 9.092z"/><path d="m420.748 46.167c10.689 2.738 17.232 14.135 18.787 23.566.604 3.66 3.771 6.256 7.363 6.256.404 0 .813-.033 1.225-.101 4.071-.672 6.827-4.516 6.156-8.587-3.328-20.173-17.377-32.42-29.822-35.609-3.999-1.022-8.067 1.387-9.092 5.383-1.024 3.998 1.386 8.068 5.383 9.092z"/></g></g></svg>